Coordinates
version=1
nRows=19
nColumns=24
inDegrees=yes

Units are S.I. units (second, meters, Newtons, ...)
If the header above contains a line with 'inDegrees', this indicates whether rotational values are in degrees (yes) or radians (no).

endheader
time	pelvis_tilt	pelvis_list	pelvis_rotation	pelvis_tx	pelvis_ty	pelvis_tz	hip_flexion_r	hip_adduction_r	hip_rotation_r	knee_angle_r	ankle_angle_r	subtalar_angle_r	mtp_angle_r	hip_flexion_l	hip_adduction_l	hip_rotation_l	knee_angle_l	ankle_angle_l	subtalar_angle_l	mtp_angle_l	lumbar_extension	lumbar_bending	lumbar_rotation
      4.39000000	      7.29304429	      1.90495701	   -181.89559332	      0.27257028	      0.59546336	     -1.21953487	     61.78463199	    -27.62477335	    -13.97720941	    -98.67182708	     39.65158807	     13.27670882	      0.00000000	     63.51836452	    -34.74614663	     -8.77704101	    -98.16742343	     39.56223744	     18.41836762	      0.00000000	     -9.70911304	      1.55324639	      4.02818940
      4.39500000	      7.29979627	      1.85769159	   -181.87812534	      0.27248301	      0.59452062	     -1.21968936	     61.92116019	    -27.71173885	    -13.96589795	    -98.87271117	     39.71095469	     13.15274512	      0.00000000	     63.61772169	    -34.74092825	     -8.73347441	    -98.33524268	     39.62595206	     18.45312534	      0.00000000	     -9.78946249	      1.57700856	      3.77531571
      4.40000000	      7.27965887	      1.83612565	   -181.86915086	      0.27241297	      0.59365456	     -1.21987125	     62.01478765	    -27.75073945	    -13.91155723	    -99.06718422	     39.78339069	     13.11955608	      0.00000000	     63.70174324	    -34.76974660	     -8.66445826	    -98.52623136	     39.71217144	     18.50824342	      0.00000000	     -9.82754142	      1.59125685	      3.68862179
      4.40500000	      7.26804267	      1.83113274	   -181.88921644	      0.27232063	      0.59281072	     -1.22001352	     62.11731094	    -27.76075836	    -13.85571421	    -99.25984255	     39.85749370	     13.12157129	      0.00000000	     63.78646577	    -34.82419622	     -8.60506039	    -98.68123798	     39.77850024	     18.51908824	      0.00000000	     -9.86464895	      1.56758516	      3.76994903
      4.41000000	      7.27350726	      1.84335200	   -181.90972690	      0.27231902	      0.59200232	     -1.22017377	     62.22641875	    -27.73093534	    -13.74460479	    -99.44239683	     39.93054061	     13.29178290	      0.00000000	     63.91391951	    -34.87968892	     -8.51796559	    -98.81268769	     39.81624956	     18.48811753	      0.00000000	     -9.80801288	      1.50557991	      4.03700846
      4.41500000	      7.24916858	      1.81986604	   -181.89135254	      0.27219864	      0.59127795	     -1.22034106	     62.28914313	    -27.78713563	    -13.70616381	    -99.61620402	     40.01659178	     13.32632539	      0.00000000	     63.96911269	    -34.88794627	     -8.45283237	    -98.97460531	     39.89383161	     18.51889526	      0.00000000	     -9.84124060	      1.44348085	      4.11531667
      4.42000000	      7.24599996	      1.77762009	   -181.87798142	      0.27215194	      0.59053372	     -1.22056058	     62.38432561	    -27.85211456	    -13.70486413	    -99.76802439	     40.11918208	     13.21401717	      0.00000000	     64.03253352	    -34.89158694	     -8.42475960	    -99.10661716	     39.96394861	     18.57185392	      0.00000000	     -9.87760985	      1.46330647	      3.87531379
      4.42500000	      7.23801898	      1.74332646	   -181.85108811	      0.27216757	      0.58974181	     -1.22072500	     62.48402668	    -27.90493976	    -13.58481732	    -99.94767543	     40.21291413	     13.39371498	      0.00000000	     64.12262164	    -34.87619688	     -8.37751643	    -99.21652706	     39.99929112	     18.56539568	      0.00000000	     -9.87438217	      1.42371429	      3.95122737
      4.43000000	      7.19926648	      1.72714863	   -181.86344990	      0.27210082	      0.58906418	     -1.22092517	     62.54250667	    -27.91821119	    -13.53624164	   -100.10967100	     40.25665474	     13.38332713	      0.00000000	     64.16165455	    -34.91987433	     -8.32200133	    -99.37441203	     40.02736264	     18.57358235	      0.00000000	     -9.94156661	      1.41839296	      3.94156429
      4.43500000	      7.21474106	      1.72571008	   -181.89160695	      0.27203411	      0.58835107	     -1.22108167	     62.65929368	    -27.92405342	    -13.50797524	   -100.27489856	     40.34955172	     13.35765443	      0.00000000	     64.25886233	    -34.98431021	     -8.28133412	    -99.48614578	     40.09563562	     18.57800245	      0.00000000	     -9.94220582	      1.41525968	      3.98195969
      4.44000000	      7.18774141	      1.70700785	   -181.91191773	      0.27195690	      0.58770293	     -1.22115463	     62.73653194	    -27.94002288	    -13.43113301	   -100.43289038	     40.40305377	     13.35787664	      0.00000000	     64.30081068	    -35.01852099	     -8.24385329	    -99.61517259	     40.14191261	     18.57935954	      0.00000000	     -9.98816073	      1.44581371	      3.94912402
      4.44500000	      7.17113964	      1.69146305	   -181.90270814	      0.27190312	      0.58700946	     -1.22130095	     62.80067816	    -27.98976518	    -13.40954623	   -100.58504952	     40.45713526	     13.38305009	      0.00000000	     64.36708462	    -35.04205231	     -8.19399137	    -99.74001931	     40.18755779	     18.60046588	      0.00000000	    -10.02537757	      1.38272232	      4.07307183
      4.45000000	      7.18196367	      1.66081597	   -181.88699630	      0.27188537	      0.58637330	     -1.22150509	     62.88765019	    -28.01867313	    -13.36156045	   -100.71167034	     40.51905842	     13.40393878	      0.00000000	     64.44349963	    -35.05754464	     -8.17562541	    -99.83417305	     40.21084540	     18.64536653	      0.00000000	    -10.02604222	      1.39622778	      3.95352422
      4.45500000	      7.15359712	      1.63344516	   -181.85100104	      0.27185378	      0.58580087	     -1.22166710	     62.93591209	    -28.08878252	    -13.37838330	   -100.83995401	     40.55724436	     13.34684910	      0.00000000	     64.48845728	    -35.04239826	     -8.12790093	    -99.93916411	     40.23490260	     18.66116734	      0.00000000	    -10.07849138	      1.32705746	      4.03899998
      4.46000000	      7.15274626	      1.61502657	   -181.85545725	      0.27182469	      0.58523960	     -1.22186597	     63.02275091	    -28.09859669	    -13.32995697	   -100.97676400	     40.62660866	     13.29377899	      0.00000000	     64.55018064	    -35.07680996	     -8.09476602	   -100.04112435	     40.30096855	     18.70485045	      0.00000000	    -10.09418073	      1.30564449	      4.07404137
      4.46500000	      7.15302050	      1.61293444	   -181.87917844	      0.27178874	      0.58472906	     -1.22207978	     63.10319521	    -28.08607408	    -13.25959608	   -101.11633007	     40.63008981	     13.39787337	      0.00000000	     64.61923706	    -35.14525263	     -8.06121692	   -100.13634963	     40.31509365	     18.73176199	      0.00000000	    -10.12093334	      1.36040554	      3.96224710
      4.47000000	      7.20321702	      1.63919732	   -181.91000801	      0.27169545	      0.58413406	     -1.22212997	     63.20537976	    -28.08487028	    -13.31104212	   -101.21631870	     40.69870015	     13.29913781	      0.00000000	     64.75207280	    -35.20990919	     -7.99491310	   -100.25124448	     40.37704263	     18.74984253	      0.00000000	    -10.07469730	      1.39321453	      4.08800964
      4.47500000	      7.16512498	      1.62382369	   -181.89176767	      0.27172990	      0.58360716	     -1.22235987	     63.23366599	    -28.09559442	    -13.23891404	   -101.34556606	     40.70948463	     13.33248561	      0.00000000	     64.78920492	    -35.22501690	     -7.94517775	   -100.34406697	     40.37897051	     18.76590712	      0.00000000	    -10.14032109	      1.39017041	      4.06806783
      4.48000000	      7.12455113	      1.56435321	   -181.86804844	      0.27171415	      0.58307923	     -1.22256227	     63.28624139	    -28.17908936	    -13.23168416	   -101.47651377	     40.79713322	     13.26146164	      0.00000000	     64.79729188	    -35.21653697	     -7.93669119	   -100.44846668	     40.38781210	     18.83869742	      0.00000000	    -10.19696852	      1.34552599	      3.98396885
